<svg width="500" height="500" viewBox="0 0 500 500" fill="none" xmlns="http://www.w3.org/2000/svg">
<style>
@media (prefers-color-scheme: dark) { 
  path { stroke: #ffffff; }
}
</style>
    <g
       fill="none" 
       id="g235"
       transform="matrix(3.1491574,-0.91350924,0.91350924,3.1491574,-135.31126,61.854546)">
      <path
         d="m 99.048128,17.818182 c 0,0 -64.721925,4.716577 -68.652406,60.529412 -3.930481,55.812836 41.139037,70.224596 41.139037,70.224596 53.454541,5.24064 65.770051,2.35829 65.770051,2.35829 0,0 29.87166,-3.40642 30.39572,-50.57219 0.52407,-47.165777 -11.52941,-63.673798 -11.52941,-63.673798 0,0 -14.41176,-19.128342 -57.122992,-18.86631 z"
         stroke="#000000"
         stroke-width="3px"
         stroke-linecap="butt"
         stroke-linejoin="miter"
         stroke-opacity="1"
         id="path68" />
      <path
         d="M 77.823529,80.705882 138.09091,80.44385 c 0,0 6.28877,-6.550802 -1.04813,-21.748663 -7.3369,-15.197861 -36.16043,-18.86631 -36.16043,-18.86631 0,0 -23.320853,-3.144385 -36.946521,13.101604 -13.625669,16.24599 -17.294118,28.561498 -17.294118,28.561498 0,0 -2.096256,25.679141 5.502674,29.871661 7.598931,4.19251 6.026738,22.01069 39.042781,23.05882 33.016044,1.04813 44.807484,-9.43316 44.807484,-9.43316 0,0 9.17113,-25.417107 9.17113,-28.29946 0,-2.882353 -5.76471,-6.28877 -5.76471,-6.28877 l -19.39037,3.144385 c 0,0 6.28877,20.438505 -12.57754,24.106955 -18.866315,3.66845 -41.663107,-8.38503 -40.614978,-17.29412 1.048128,-8.909092 3.144385,-19.652408 3.144385,-19.652408 z"
         stroke="#000000"
         stroke-width="4px"
         stroke-linecap="butt"
         stroke-linejoin="miter"
         stroke-opacity="1"
         id="path70" />
      <path
         d="m 77.037433,64.459893 c 0.524064,-2.358289 9.433155,-12.839572 20.176471,-12.839572 10.743316,0 18.080216,12.053476 18.080216,12.053476 z"
         stroke="#000000"
         stroke-width="4px"
         stroke-linecap="butt"
         stroke-linejoin="miter"
         stroke-opacity="1"
         id="path72" />
      <path
         d="M 47.689839,40.352941 25.15508,67.604278 c 0,0 -6.812834,23.844919 -2.096256,37.732612 4.716577,13.8877 12.839572,35.11231 26.203209,41.66311"
         stroke="#000000"
         stroke-width="4px"
         stroke-linecap="butt"
         stroke-linejoin="miter"
         stroke-opacity="1"
         id="path74" />
      <path
         d="m 49.262033,147 27.7754,11.52941 31.443847,2.35829 28.29947,-5.24064 14.6738,-11.79145 v 0"
         stroke="#000000"
         stroke-width="3px"
         stroke-linecap="butt"
         stroke-linejoin="miter"
         stroke-opacity="1"
         id="path76" />
    </g>
</svg>
